<svg id="Laag_1" data-name="Laag 1" xmlns="http://www.w3.org/2000/svg" viewBox="0 0 2573 1205"><defs><style>.cls-1{fill:#4c2d17;}.cls-2{fill:#5d8c1a;}.cls-3{fill:#344e0f;}.cls-4{fill:#68aa22;}.cls-5{fill:#acf357;}.cls-6,.cls-8{fill:none;stroke:#4c2d17;stroke-miterlimit:10;}.cls-6{stroke-width:8.65px;}.cls-7{fill:#536c0e;}.cls-8{stroke-width:6.08px;}.cls-9{fill:#73b72e;}</style></defs><g id="tree_1" data-name="tree 1"><rect class="cls-1" x="842.59" y="1058.88" width="23.02" height="151.34"/><ellipse class="cls-2" cx="854.98" cy="942.73" rx="120.42" ry="119.67"/><ellipse class="cls-2" cx="856.75" cy="803.71" rx="83.23" ry="82.71"/></g><g id="tree_1-2" data-name="tree 1"><rect class="cls-1" x="2386.6" y="1096.09" width="17.06" height="112.13"/><ellipse class="cls-2" cx="2395.78" cy="1010.04" rx="89.22" ry="88.66"/><ellipse class="cls-2" cx="2397.09" cy="907.04" rx="61.66" ry="61.28"/></g><g id="tree_2" data-name="tree 2"><rect class="cls-1" x="1203.27" y="1104.43" width="16.2" height="126.53"/><polygon class="cls-3" points="1285.83 919.24 1143.26 918.22 1215.43 796.03 1285.83 919.24"/><polygon class="cls-3" points="1301.85 1003.43 1126.68 1003.43 1214.27 852.66 1301.85 1003.43"/><polygon class="cls-3" points="1333.42 1117.05 1094.68 1117.05 1214.05 911.58 1333.42 1117.05"/></g><g id="tree_2-2" data-name="tree 2"><rect class="cls-1" x="74.94" y="1090.79" width="16.2" height="126.53"/><polygon class="cls-3" points="157.5 905.6 14.93 904.58 87.1 782.39 157.5 905.6"/><polygon class="cls-3" points="173.52 989.78 -1.65 989.78 85.93 839.02 173.52 989.78"/><polygon class="cls-3" points="205.09 1103.4 -33.65 1103.4 85.72 897.94 205.09 1103.4"/></g><g id="tree3"><rect class="cls-1" x="1344.65" y="1074.89" width="17.64" height="137.77"/><polygon class="cls-4" points="1434.56 873.24 1279.31 872.13 1357.9 739.08 1434.56 873.24"/><polygon class="cls-4" points="1452 964.91 1261.25 964.91 1356.63 800.74 1452 964.91"/><polygon class="cls-4" points="1486.37 1088.63 1226.41 1088.63 1356.39 864.9 1486.37 1088.63"/></g><g id="tree3-2" data-name="tree3"><rect class="cls-1" x="167.97" y="1124.41" width="12.12" height="94.62"/><polygon class="cls-4" points="229.71 985.92 123.1 985.16 177.07 893.78 229.71 985.92"/><polygon class="cls-4" points="241.69 1048.88 110.69 1048.88 176.19 936.14 241.69 1048.88"/><polygon class="cls-4" points="265.3 1133.84 86.77 1133.84 176.03 980.19 265.3 1133.84"/></g><path class="cls-3" d="M419,1215.5a182,182,0,0,0,5.68-45.67c0-64.19-31.71-116.23-70.83-116.23s-70.84,52-70.84,116.23a181.5,181.5,0,0,0,5.69,45.67Z"/><path class="cls-5" d="M507.53,1215.5a996.26,996.26,0,0,0,5.68-108.22c0-152.11-31.71-275.41-70.83-275.41s-70.83,123.3-70.83,275.41a996.26,996.26,0,0,0,5.68,108.22Z"/><path class="cls-3" d="M2142,1216a182,182,0,0,0,5.68-45.67c0-64.19-31.71-116.23-70.83-116.23s-70.84,52-70.84,116.23a181.5,181.5,0,0,0,5.69,45.67Z"/><path class="cls-5" d="M2230.53,1216a996.31,996.31,0,0,0,5.68-108.23c0-152.1-31.71-275.41-70.83-275.41s-70.83,123.31-70.83,275.41a996.31,996.31,0,0,0,5.68,108.23Z"/><path class="cls-6" d="M1612.51,991.35s74,47.79,113.13,55.76,53.48,168.39,53.48,168.39,43.2-151.33,74.06-160.43"/><line class="cls-6" x1="1726.67" y1="991.35" x2="1756.84" y2="1094.14"/><rect class="cls-7" x="1647.48" y="1058.49" width="257.12" height="69.41" rx="26.86"/><rect class="cls-4" x="1801.75" y="1024.35" width="181.25" height="48.93" rx="18.94"/><rect class="cls-5" x="1558" y="955.05" width="210.35" height="56.78" rx="21.98"/><path class="cls-8" d="M556.83,1068.55s52,33.58,79.5,39.18,37.58,118.33,37.58,118.33,30.35-106.34,52-112.73"/><line class="cls-8" x1="637.05" y1="1068.55" x2="658.25" y2="1140.78"/><rect class="cls-4" x="581.4" y="1115.73" width="180.68" height="48.77" rx="18.88"/><rect class="cls-5" x="689.81" y="1091.74" width="127.36" height="34.38" rx="13.31"/><rect class="cls-7" x="518.52" y="1043.04" width="147.81" height="39.9" rx="15.44"/><ellipse class="cls-7" cx="981.6" cy="1174.15" rx="41.61" ry="41.36"/><ellipse class="cls-5" cx="1042.69" cy="1157.43" rx="56.67" ry="56.31"/><ellipse class="cls-7" cx="2482.6" cy="1174.15" rx="41.61" ry="41.36"/><path class="cls-5" d="M2600.36,1157.43c0,.75,0,1.5-.05,2.24a55.82,55.82,0,0,1-16.64,37.66c-.19.2-.38.39-.58.57A55.86,55.86,0,0,1,2577,1203a56.87,56.87,0,0,1-72.48-4.86l-.57-.56a56,56,0,0,1-11.75-63.67,55.32,55.32,0,0,1,5.25-9A56.73,56.73,0,0,1,2600,1151,54.18,54.18,0,0,1,2600.36,1157.43Z"/><path class="cls-7" d="M1638.34,1204.72a56.88,56.88,0,0,1-5.91,15.9l-79-.19a80.11,80.11,0,0,1-13.51,13.41,57.13,57.13,0,0,1-10.13-13.48,54.64,54.64,0,0,1-3.54-7.88,53.65,53.65,0,0,1-2.48-9.15c-.21-1.1-.39-2.2-.53-3.33a56.88,56.88,0,0,1,0-14.34c.14-1.25.34-2.47.57-3.68a55.21,55.21,0,0,1,3.68-12,58.52,58.52,0,0,1,111.72,15.56A57.49,57.49,0,0,1,1638.34,1204.72Z"/><path class="cls-4" d="M1570.4,1171.51v.26a78.52,78.52,0,0,1-17,48.66,80.11,80.11,0,0,1-13.51,13.41,57.13,57.13,0,0,1-10.13-13.48l-40.7-.1-1,1.14-59.29-.16c-.32-.37-.63-.76-.92-1.14a70,70,0,0,1-4.37-6.16,78.33,78.33,0,0,1-12.4-42.43c0-43.73,35.68-79.19,79.69-79.19a79.74,79.74,0,0,1,72,45.31A78.54,78.54,0,0,1,1570.4,1171.51Z"/><polygon class="cls-9" points="3.52 1201.24 -18 1148.96 20.26 1184.33 32.22 1141.28 41.78 1190.48 80.04 1089 63.3 1195.09 103.95 1159.73 92 1204.32 118.3 1204.32 130.25 1187.4 142.21 1205.85 142.21 1142.81 163.73 1204.32 199.6 1130.51 190.03 1198.16 216.34 1155.11 216.34 1195.09 266.55 1148.96 271.34 1201.24 309.6 1184.33 331.12 1195.09 343.07 1162.8 355.03 1195.09 381.33 1118.21 390.9 1192.01 410.03 1192.01 414.81 1165.88 436.33 1184.33 491.33 1148.96 474.59 1184.33 505.68 1170.49 543.93 1181.25 577.41 1173.56 546.33 1132.05 610.89 1173.56 620.45 1121.29 644.37 1190.48 692.19 1156.65 713.71 1195.09 792.62 1159.73 773.49 1187.4 818.92 1152.04 840.44 1190.48 852.4 1142.81 895.44 1190.48 873.92 1130.51 926.53 1179.71 938.48 1132.05 960 1184.33 1003.05 1141.28 993.48 1195.09 1026.96 1176.64 1070 1198.16 3.52 1201.24"/><polygon class="cls-9" points="1103 1227 -5 1227 -5 1198.71 1104 1195.49 1103 1227"/><polygon class="cls-9" points="1066.52 1201.24 1045 1148.96 1083.26 1184.33 1095.21 1141.28 1104.78 1190.48 1143.04 1089 1126.3 1195.09 1166.95 1159.73 1155 1204.32 1181.3 1204.32 1193.26 1187.4 1205.21 1205.85 1205.21 1142.81 1226.73 1204.32 1262.6 1130.51 1253.04 1198.16 1279.34 1155.11 1279.34 1195.09 1329.55 1148.96 1334.34 1201.24 1372.6 1184.33 1394.12 1195.09 1406.07 1162.8 1418.03 1195.09 1444.33 1118.21 1453.9 1192.01 1473.03 1192.01 1477.81 1165.88 1499.33 1184.33 1554.33 1148.96 1537.59 1184.33 1568.67 1170.49 1606.93 1181.25 1640.41 1173.56 1609.33 1132.05 1673.89 1173.56 1683.45 1121.29 1707.37 1190.48 1755.19 1156.65 1776.71 1195.09 1855.62 1159.73 1836.49 1187.4 1881.92 1152.04 1903.44 1190.48 1915.4 1142.81 1958.44 1190.48 1936.92 1130.51 1989.53 1179.71 2001.48 1132.05 2023 1184.33 2066.05 1141.28 2056.48 1195.09 2089.96 1176.64 2133 1198.16 1066.52 1201.24"/><polygon class="cls-9" points="2167 1227 1059 1227 1059 1198.71 2168 1195.49 2167 1227"/><polygon class="cls-9" points="2208.04 1202.43 2207.89 1202.98 2167.89 1203.1 2145.47 1203.16 2118.52 1203.24 2118.29 1202.69 2117.27 1200.21 2117.04 1199.64 2112.91 1189.62 2097 1150.96 2135.26 1186.33 2145.87 1148.14 2147.22 1143.28 2156.78 1192.48 2195.04 1091 2178.3 1197.09 2218.95 1161.73 2208.04 1202.43"/><polygon class="cls-9" points="2232.23 1198.91 2235.71 1198.9 2233.3 1202.31 2207 1202.31 2207.89 1198.98 2232.23 1198.91"/><polygon class="cls-9" points="2253.61 1198.29 2253.97 1198.85 2235.71 1198.9 2236.1 1198.34 2245.25 1185.4 2253.61 1198.29"/><polygon class="cls-9" points="2253.97 1198.85 2257.21 1198.84 2257.21 1203.85 2253.97 1198.85"/><polygon class="cls-9" points="2277.09 1200.44 2277.29 1201 2257 1201.06 2257 1143.03 2277.09 1200.44"/><polygon class="cls-9" points="2277.5 1198.78 2280.45 1198.77 2278.73 1202.31 2277.5 1198.78"/><polygon class="cls-9" points="2384.88 1201.44 2384.93 1202 2279.11 1202.3 2279.38 1201.74 2313.26 1132.04 2303.7 1199.69 2330 1156.64 2330 1196.62 2380.21 1150.49 2384.88 1201.44"/><polygon class="cls-9" points="2386.6 1198.47 2388.1 1198.46 2386.6 1199.13 2386.34 1199.24 2386.27 1198.47 2386.6 1198.47"/><path class="cls-9" d="M2600.31,1159.67l-10.72,22.66,6.23-2.77a56.19,56.19,0,0,1-12.15,17.77c-.19.2-.38.39-.58.57l-6.09,0-60.47.17-12,0-55.72.16-45.15.13-15.55,0,1.27-.56,14.28-6.31,20.95-9.26,20.81,10.4.71.36,12-32.29,12,32.29,20.38-59.57,5.92-17.31,1.12,8.65,1.46,11.23,7,53.92H2525l4.78-26.13,21.52,18.45,25.67-16.51,23-14.79,6.34-4.07Z"/><path class="cls-9" d="M2583.67,1197.33c-.19.2-.38.39-.58.57A55.86,55.86,0,0,1,2577,1203v24H2110v-28.29l8.29,0,27.26-.08,22.35-.07,40.14-.11,24.24-.08h3.82l17.51,0h3.6l20.09-.06h3.42l105.5-.3h3.15l14.28,0,44.76-.13,55.54-.16,13,0,60.08-.18Z"/></svg>