<?xml version="1.0" encoding="utf-8"?>
<!-- Generator: Adobe Illustrator 25.2.0, SVG Export Plug-In . SVG Version: 6.00 Build 0)  -->
<svg version="1.1" id="Laag_1" xmlns="http://www.w3.org/2000/svg" xmlns:xlink="http://www.w3.org/1999/xlink" x="0px" y="0px"
	 viewBox="0 0 2573 1205" style="enable-background:new 0 0 2573 1205;" xml:space="preserve">
<style type="text/css">
	.st0{fill:#4C2D17;}
	.st1{fill:#0D993B;}
	.st2{fill:#075521;}
	.st3{fill:#12B955;}
	.st4{fill:#4BFF8E;}
	.st5{fill:none;stroke:#4C2D17;stroke-width:8.6541;stroke-miterlimit:10;}
	.st6{fill:#037718;}
	.st7{fill:none;stroke:#4C2D17;stroke-width:6.0813;stroke-miterlimit:10;}
	.st8{fill:#1EC764;}
</style>
<g id="tree_1">
	<rect x="842.59" y="1058.88" class="st0" width="23.02" height="151.34"/>
	<g>
		<ellipse class="st1" cx="854.98" cy="942.73" rx="120.42" ry="119.67"/>
	</g>
	<g>
		<ellipse class="st1" cx="856.75" cy="803.71" rx="83.23" ry="82.71"/>
	</g>
</g>
<g id="tree_1_1_">
	<rect x="2386.6" y="1096.09" class="st0" width="17.06" height="112.13"/>
	<g>
		<ellipse class="st1" cx="2395.78" cy="1010.04" rx="89.22" ry="88.66"/>
	</g>
	<g>
		<ellipse class="st1" cx="2397.09" cy="907.04" rx="61.66" ry="61.28"/>
	</g>
</g>
<g id="tree_2">
	<rect x="1203.27" y="1104.43" class="st0" width="16.2" height="126.53"/>
	<polygon class="st2" points="1285.83,919.24 1143.26,918.22 1215.43,796.03 	"/>
	<polygon class="st2" points="1301.85,1003.43 1126.68,1003.43 1214.26,852.66 	"/>
	<polygon class="st2" points="1333.42,1117.04 1094.68,1117.04 1214.05,911.58 	"/>
</g>
<g id="tree_2_1_">
	<rect x="74.94" y="1090.79" class="st0" width="16.2" height="126.53"/>
	<polygon class="st2" points="157.5,905.6 14.93,904.58 87.1,782.39 	"/>
	<polygon class="st2" points="173.52,989.78 -1.65,989.78 85.93,839.02 	"/>
	<polygon class="st2" points="205.09,1103.4 -33.65,1103.4 85.72,897.94 	"/>
</g>
<g id="tree3">
	<rect x="1344.65" y="1074.89" class="st0" width="17.64" height="137.77"/>
	<polygon class="st3" points="1434.56,873.24 1279.31,872.13 1357.9,739.07 	"/>
	<polygon class="st3" points="1452,964.91 1261.25,964.91 1356.63,800.74 	"/>
	<polygon class="st3" points="1486.37,1088.63 1226.41,1088.63 1356.39,864.9 	"/>
</g>
<g id="tree3_1_">
	<rect x="167.97" y="1124.41" class="st0" width="12.12" height="94.62"/>
	<polygon class="st3" points="229.71,985.92 123.1,985.16 177.07,893.79 	"/>
	<polygon class="st3" points="241.69,1048.88 110.69,1048.88 176.19,936.14 	"/>
	<polygon class="st3" points="265.3,1133.84 86.77,1133.84 176.03,980.19 	"/>
</g>
<path class="st2" d="M418.99,1215.5c3.66-14.02,5.68-29.46,5.68-45.67c0-64.19-31.71-116.23-70.83-116.23S283,1105.64,283,1169.83
	c0,16.22,2.03,31.65,5.68,45.67H418.99z"/>
<path class="st4" d="M507.53,1215.5c3.66-33.22,5.68-69.8,5.68-108.23c0-152.1-31.71-275.41-70.83-275.41s-70.83,123.3-70.83,275.41
	c0,38.42,2.03,75,5.68,108.23H507.53z"/>
<path class="st2" d="M2141.99,1216c3.66-14.02,5.68-29.46,5.68-45.67c0-64.19-31.71-116.23-70.83-116.23
	c-39.12,0-70.83,52.04-70.83,116.23c0,16.22,2.03,31.65,5.68,45.67H2141.99z"/>
<path class="st4" d="M2230.53,1216c3.66-33.22,5.68-69.8,5.68-108.23c0-152.1-31.71-275.41-70.83-275.41s-70.83,123.3-70.83,275.41
	c0,38.42,2.03,75,5.68,108.23H2230.53z"/>
<g>
	<path class="st5" d="M1612.51,991.35c0,0,74.05,47.79,113.13,55.75c39.08,7.96,53.48,168.4,53.48,168.4s43.2-151.33,74.05-160.43"
		/>
	<line class="st5" x1="1726.67" y1="991.35" x2="1756.84" y2="1094.14"/>
	<path class="st6" d="M1877.74,1127.89h-203.39c-14.78,0-26.86-12.09-26.86-26.86v-15.68c0-14.78,12.09-26.86,26.86-26.86h203.39
		c14.78,0,26.86,12.09,26.86,26.86v15.68C1904.6,1115.8,1892.51,1127.89,1877.74,1127.89z"/>
	<path class="st3" d="M1964.06,1073.28h-143.38c-10.42,0-18.94-8.52-18.94-18.94v-11.05c0-10.42,8.52-18.94,18.94-18.94h143.38
		c10.42,0,18.94,8.52,18.94,18.94v11.05C1983,1064.76,1974.48,1073.28,1964.06,1073.28z"/>
	<path class="st4" d="M1746.37,1011.83h-166.4c-12.09,0-21.98-9.89-21.98-21.98v-12.83c0-12.09,9.89-21.98,21.98-21.98h166.4
		c12.09,0,21.98,9.89,21.98,21.98v12.83C1768.35,1001.95,1758.46,1011.83,1746.37,1011.83z"/>
</g>
<g>
	<path class="st7" d="M556.83,1068.55c0,0,52.04,33.58,79.5,39.18c27.46,5.6,37.58,118.33,37.58,118.33s30.35-106.34,52.04-112.74"
		/>
	<line class="st7" x1="637.05" y1="1068.55" x2="658.25" y2="1140.78"/>
	<path class="st3" d="M743.2,1164.5H600.28c-10.38,0-18.88-8.49-18.88-18.88v-11.02c0-10.38,8.49-18.88,18.88-18.88H743.2
		c10.38,0,18.88,8.49,18.88,18.88v11.02C762.08,1156,753.58,1164.5,743.2,1164.5z"/>
	<path class="st4" d="M803.87,1126.12H703.12c-7.32,0-13.31-5.99-13.31-13.31v-7.77c0-7.32,5.99-13.31,13.31-13.31h100.75
		c7.32,0,13.31,5.99,13.31,13.31v7.77C817.17,1120.13,811.18,1126.12,803.87,1126.12z"/>
	<path class="st6" d="M650.89,1082.94H533.97c-8.49,0-15.44-6.95-15.44-15.44v-9.01c0-8.49,6.95-15.44,15.44-15.44h116.93
		c8.49,0,15.44,6.95,15.44,15.44v9.01C666.34,1075.99,659.39,1082.94,650.89,1082.94z"/>
</g>
<g>
	<ellipse class="st6" cx="981.6" cy="1174.15" rx="41.61" ry="41.36"/>
	<ellipse class="st4" cx="1042.69" cy="1157.43" rx="56.67" ry="56.31"/>
</g>
<g>
	<ellipse class="st6" cx="2482.6" cy="1174.15" rx="41.61" ry="41.36"/>
	<path class="st4" d="M2600.36,1157.43c0,0.75-0.01,1.5-0.05,2.24c-0.27,7.04-1.85,13.75-4.49,19.89
		c-2.88,6.69-7.03,12.72-12.15,17.77c-0.19,0.2-0.38,0.39-0.58,0.57c-1.91,1.84-3.94,3.54-6.09,5.09
		c-9.35,6.76-20.86,10.75-33.31,10.75c-11.93,0-22.99-3.66-32.12-9.91c-2.5-1.71-4.86-3.62-7.05-5.7c-0.19-0.19-0.38-0.37-0.57-0.56
		c-10.45-10.21-16.93-24.42-16.93-40.14c0-8.4,1.85-16.37,5.18-23.53c1.46-3.18,3.23-6.21,5.25-9.04
		c10.27-14.37,27.15-23.74,46.24-23.74c12.45,0,23.96,3.99,33.31,10.75c12.52,9.05,21.17,23.08,22.99,39.16
		C2600.24,1153.13,2600.36,1155.27,2600.36,1157.43z"/>
</g>
<g>
	<path class="st6" d="M1638.34,1204.72c-1.17,5.61-3.19,10.96-5.91,15.91l-79.05-0.19c-3.95,4.98-8.48,9.49-13.51,13.41
		c-4-3.94-7.42-8.48-10.13-13.48c-1.38-2.52-2.57-5.16-3.54-7.88c-1.08-2.94-1.91-5.98-2.48-9.15c-0.21-1.09-0.39-2.2-0.53-3.33
		c-0.62-4.87-0.6-9.68-0.02-14.34c0.14-1.25,0.34-2.46,0.57-3.68c0.78-4.17,2.02-8.18,3.68-12.02
		c6.46-15.03,19.18-27.03,35.33-32.33c3.56-1.18,7.28-2.02,11.14-2.5c32.02-3.99,61.24,18.57,65.26,50.38
		C1639.97,1192.1,1639.65,1198.57,1638.34,1204.72z"/>
	<path class="st3" d="M1570.4,1171.51v0.26c-0.05,18.35-6.41,35.27-17.02,48.66c-3.95,4.98-8.48,9.49-13.51,13.41
		c-4-3.94-7.42-8.48-10.13-13.48l-40.69-0.11l-1.04,1.14l-59.29-0.16c-0.32-0.37-0.64-0.76-0.92-1.14
		c-1.56-1.97-3.03-4.03-4.37-6.16c-2.67-4.19-4.98-8.64-6.84-13.3c-3.59-9.01-5.56-18.85-5.56-29.12
		c0-43.73,35.68-79.19,79.69-79.19c31.8,0,59.27,18.53,72.04,45.31C1567.65,1147.91,1570.4,1159.4,1570.4,1171.51z"/>
</g>
<g>
	<polygon class="st8" points="3.52,1201.24 -18,1148.96 20.26,1184.33 32.22,1141.28 41.78,1190.48 80.04,1089 63.3,1195.09 
		103.95,1159.73 92,1204.31 118.3,1204.31 130.25,1187.4 142.21,1205.85 142.21,1142.81 163.73,1204.31 199.6,1130.51 
		190.04,1198.16 216.34,1155.11 216.34,1195.09 266.55,1148.96 271.34,1201.24 309.6,1184.33 331.12,1195.09 343.07,1162.8 
		355.03,1195.09 381.33,1118.21 390.9,1192.01 410.03,1192.01 414.81,1165.88 436.33,1184.33 491.33,1148.96 474.59,1184.33 
		505.67,1170.49 543.93,1181.25 577.41,1173.56 546.33,1132.05 610.89,1173.56 620.45,1121.29 644.36,1190.48 692.19,1156.65 
		713.71,1195.09 792.62,1159.73 773.49,1187.4 818.92,1152.04 840.44,1190.48 852.4,1142.81 895.44,1190.48 873.92,1130.51 
		926.53,1179.71 938.48,1132.05 960,1184.33 1003.05,1141.28 993.48,1195.09 1026.96,1176.64 1070,1198.16 	"/>
	<polygon class="st8" points="1103,1227 -5,1227 -5,1198.71 1104,1195.49 	"/>
</g>
<g>
	<g>
		<polygon class="st8" points="1066.52,1201.24 1045,1148.96 1083.26,1184.33 1095.22,1141.28 1104.78,1190.48 1143.04,1089 
			1126.3,1195.09 1166.95,1159.73 1155,1204.31 1181.3,1204.31 1193.26,1187.4 1205.21,1205.85 1205.21,1142.81 1226.73,1204.31 
			1262.6,1130.51 1253.04,1198.16 1279.34,1155.11 1279.34,1195.09 1329.55,1148.96 1334.34,1201.24 1372.6,1184.33 
			1394.12,1195.09 1406.07,1162.8 1418.03,1195.09 1444.33,1118.21 1453.9,1192.01 1473.03,1192.01 1477.81,1165.88 
			1499.33,1184.33 1554.33,1148.96 1537.59,1184.33 1568.67,1170.49 1606.93,1181.25 1640.41,1173.56 1609.33,1132.05 
			1673.89,1173.56 1683.45,1121.29 1707.36,1190.48 1755.19,1156.65 1776.71,1195.09 1855.62,1159.73 1836.49,1187.4 
			1881.92,1152.04 1903.44,1190.48 1915.4,1142.81 1958.44,1190.48 1936.92,1130.51 1989.53,1179.71 2001.48,1132.05 2023,1184.33 
			2066.05,1141.28 2056.48,1195.09 2089.96,1176.64 2133,1198.16 		"/>
		<polygon class="st8" points="2167,1227 1059,1227 1059,1198.71 2168,1195.49 		"/>
	</g>
</g>
<g>
	<polygon class="st8" points="2208.04,1202.43 2207.89,1202.98 2167.89,1203.1 2145.47,1203.16 2118.52,1203.24 2118.29,1202.69 
		2117.27,1200.21 2117.04,1199.64 2112.91,1189.62 2097,1150.96 2135.26,1186.33 2145.87,1148.14 2147.22,1143.28 2156.78,1192.48 
		2195.04,1091 2178.3,1197.09 2218.95,1161.73 	"/>
	<polygon class="st8" points="2232.23,1198.91 2235.71,1198.9 2233.3,1202.31 2207,1202.31 2207.89,1198.98 	"/>
	<polygon class="st8" points="2253.61,1198.29 2253.97,1198.85 2235.71,1198.9 2236.1,1198.34 2245.25,1185.4 	"/>
	<polygon class="st8" points="2253.97,1198.85 2257.21,1198.84 2257.21,1203.85 	"/>
	<polygon class="st8" points="2277.09,1200.44 2277.29,1201 2257,1201.06 2257,1143.03 	"/>
	<polygon class="st8" points="2277.5,1198.78 2280.45,1198.77 2278.73,1202.31 	"/>
	<polygon class="st8" points="2384.88,1201.44 2384.93,1202 2279.11,1202.3 2279.38,1201.74 2313.26,1132.04 2303.7,1199.69 
		2330,1156.64 2330,1196.62 2380.21,1150.49 	"/>
	<polygon class="st8" points="2386.6,1198.47 2388.1,1198.46 2386.6,1199.13 2386.34,1199.24 2386.27,1198.47 	"/>
	<path class="st8" d="M2600.31,1159.67l-10.72,22.66l6.23-2.77c-2.88,6.69-7.03,12.72-12.15,17.77c-0.19,0.2-0.38,0.39-0.58,0.57
		l-6.09,0.02l-60.47,0.17l-12.01,0.04l-55.72,0.16l-45.15,0.13l-15.55,0.04l1.27-0.56l14.28-6.31l20.95-9.26l20.81,10.4l0.71,0.36
		l11.95-32.29l11.96,32.29l20.38-59.57l5.92-17.31l1.12,8.65l1.46,11.23l6.99,53.92h19.13l4.78-26.13l21.52,18.45l25.67-16.51
		l22.99-14.79l6.34-4.07L2600.31,1159.67z"/>
	<path class="st8" d="M2583.67,1197.33c-0.19,0.2-0.38,0.39-0.58,0.57c-1.91,1.84-3.94,3.54-6.09,5.09V1227h-467v-28.29l8.29-0.02
		l27.26-0.08l22.35-0.07l40.14-0.11l24.24-0.08l3.82-0.01l17.51-0.05l3.6-0.01l20.09-0.06l3.42-0.01l105.5-0.3h0.38l2.77-0.01
		l14.28-0.04l44.76-0.13l55.54-0.16l12.97-0.04l60.08-0.18L2583.67,1197.33z"/>
</g>
</svg>
